<?xml version="1.0" encoding="UTF-8" standalone="no"?>
<svg
   version="1.1"
   x="0px"
   y="0px"
   viewBox="0 0 81.211998 81.438248"
   enable-background="new 0 0 100 100"
   xml:space="preserve"
   id="svg4"
   sodipodi:docname="noun-speaker-border.svg"
   width="81.211998"
   height="81.438248"
   inkscape:version="1.3.1 (9b9bdc1480, 2023-11-25, custom)"
   xmlns:inkscape="http://www.inkscape.org/namespaces/inkscape"
   xmlns:sodipodi="http://sodipodi.sourceforge.net/DTD/sodipodi-0.dtd"
   xmlns="http://www.w3.org/2000/svg"
   xmlns:svg="http://www.w3.org/2000/svg"><defs
     id="defs4" /><sodipodi:namedview
     id="namedview4"
     pagecolor="#ffffff"
     bordercolor="#000000"
     borderopacity="0.25"
     inkscape:showpageshadow="2"
     inkscape:pageopacity="0.0"
     inkscape:pagecheckerboard="0"
     inkscape:deskcolor="#d1d1d1"
     inkscape:zoom="8.312"
     inkscape:cx="40.6641"
     inkscape:cy="38.618864"
     inkscape:window-width="2302"
     inkscape:window-height="1261"
     inkscape:window-x="769"
     inkscape:window-y="798"
     inkscape:window-maximized="0"
     inkscape:current-layer="svg4" /><path
     d="M 40.441475,9.5987466 26.600138,23.066951 c -0.394388,0.383367 -0.921812,0.598272 -1.472064,0.598272 H 13.367306 c -2.610356,0 -4.7263492,2.115994 -4.7263492,4.726349 v 24.655104 c 0,2.610355 2.1159932,4.726349 4.7263492,4.726349 h 11.760768 c 0.549465,0 1.077676,0.214118 1.472064,0.598272 l 13.841337,13.468205 c 2.074272,2.01838 5.556058,0.548678 5.556058,-2.345856 V 50.209607 31.229428 11.944603 c 0,-2.8945348 -3.481786,-4.3642372 -5.556058,-2.3458564 z"
     id="path1"
     style="stroke-width:0.7872" /><path
     d="m 55.132202,56.448954 c -0.533722,0 -1.067444,-0.171609 -1.524807,-0.533721 -1.04855,-0.838368 -1.219373,-2.382067 -0.381005,-3.430618 3.01104,-3.773837 4.612205,-8.328576 4.612205,-13.169856 0,-4.631097 -1.486233,-9.0528 -4.268985,-12.750278 -0.819476,-1.067443 -0.61008,-2.611143 0.476256,-3.411725 1.086336,-0.838368 2.611142,-0.571507 3.411724,0.476256 3.449511,4.554739 5.260071,9.986419 5.260071,15.68496 0,5.889043 -2.019955,11.64505 -5.679648,16.218682 -0.476256,0.610867 -1.20048,0.9163 -1.905811,0.9163 z"
     id="path2"
     style="stroke-width:0.7872" /><path
     d="m 62.27919,62.052244 c -0.591187,0 -1.181587,-0.209395 -1.63895,-0.628973 -0.991085,-0.914726 -1.067443,-2.458425 -0.17161,-3.44951 4.669671,-5.107354 7.223348,-11.740301 7.223348,-18.658215 0,-6.937593 -2.57257,-13.569753 -7.24224,-18.696787 -0.914727,-0.991085 -0.857261,-2.534784 0.152716,-3.430617 0.972192,-0.9533 2.515892,-0.857261 3.430618,0.152716 5.508038,6.003188 8.537971,13.817722 8.537971,21.974688 0,8.138074 -3.01104,15.932928 -8.481293,21.936116 -0.495148,0.533721 -1.143014,0.800582 -1.81056,0.800582 z"
     id="path3"
     style="stroke-width:0.7872" /></svg>
