<?xml version="1.0" encoding="UTF-8" standalone="no"?>
<svg
   version="1.1"
   x="0px"
   y="0px"
   viewBox="0 0 81.211998 81.438248"
   enable-background="new 0 0 100 100"
   xml:space="preserve"
   id="svg4"
   sodipodi:docname="noun-speaker-5967985.svg"
   width="81.211998"
   height="81.438248"
   inkscape:version="1.3.1 (9b9bdc1480, 2023-11-25, custom)"
   xmlns:inkscape="http://www.inkscape.org/namespaces/inkscape"
   xmlns:sodipodi="http://sodipodi.sourceforge.net/DTD/sodipodi-0.dtd"
   xmlns="http://www.w3.org/2000/svg"
   xmlns:svg="http://www.w3.org/2000/svg"><defs
     id="defs4" /><sodipodi:namedview
     id="namedview4"
     pagecolor="#ffffff"
     bordercolor="#000000"
     borderopacity="0.25"
     inkscape:showpageshadow="2"
     inkscape:pageopacity="0.0"
     inkscape:pagecheckerboard="0"
     inkscape:deskcolor="#d1d1d1"
     inkscape:zoom="8.312"
     inkscape:cx="40.6641"
     inkscape:cy="38.618864"
     inkscape:window-width="2302"
     inkscape:window-height="1261"
     inkscape:window-x="769"
     inkscape:window-y="798"
     inkscape:window-maximized="0"
     inkscape:current-layer="svg4" /><path
     d="M 40.397,1.1861242 22.814,18.295124 c -0.501,0.487 -1.171,0.76 -1.87,0.76 H 6.004 c -3.316,0 -6.004,2.688 -6.004,6.004 v 31.32 c 0,3.316 2.688,6.004 6.004,6.004 h 14.94 c 0.698,0 1.369,0.272 1.87,0.76 l 17.583,17.109 c 2.635,2.564 7.058,0.697 7.058,-2.98 v -24.497 -24.111 -24.4979998 c 0,-3.67699999 -4.423,-5.544 -7.058,-2.98 z"
     id="path1" /><path
     d="m 59.059,60.701124 c -0.678,0 -1.356,-0.218 -1.937,-0.678 -1.332,-1.065 -1.549,-3.026 -0.484,-4.358 3.825,-4.794 5.859,-10.58 5.859,-16.73 0,-5.883 -1.888,-11.5 -5.423,-16.197 -1.041,-1.356 -0.775,-3.317 0.605,-4.334 1.38,-1.065 3.317,-0.726 4.334,0.605 4.382,5.786 6.682,12.686 6.682,19.925 0,7.481 -2.566,14.793 -7.215,20.603 -0.605,0.776 -1.525,1.164 -2.421,1.164 z"
     id="path2" /><path
     d="m 68.138,67.819124 c -0.751,0 -1.501,-0.266 -2.082,-0.799 -1.259,-1.162 -1.356,-3.123 -0.218,-4.382 5.932,-6.488 9.176,-14.914 9.176,-23.702 0,-8.813 -3.268,-17.238 -9.2,-23.751 -1.162,-1.259 -1.089,-3.22 0.194,-4.358 1.235,-1.2109998 3.196,-1.0889998 4.358,0.194 6.997,7.626 10.846,17.553 10.846,27.915 0,10.338 -3.825,20.24 -10.774,27.866 -0.629,0.678 -1.452,1.017 -2.3,1.017 z"
     id="path3" /></svg>
