<?xml version="1.0" encoding="UTF-8" standalone="no"?>
<svg
   version="1.1"
   x="0px"
   y="0px"
   viewBox="0 0 76.928001 83.597794"
   enable-background="new 0 0 100 100"
   xml:space="preserve"
   id="svg3"
   sodipodi:docname="noun-mute-border.svg"
   inkscape:version="1.3.1 (9b9bdc1480, 2023-11-25, custom)"
   inkscape:export-filename="noun-mute-5967992.svg"
   inkscape:export-xdpi="96.461876"
   inkscape:export-ydpi="96.461876"
   width="76.928001"
   height="83.597794"
   xmlns:inkscape="http://www.inkscape.org/namespaces/inkscape"
   xmlns:sodipodi="http://sodipodi.sourceforge.net/DTD/sodipodi-0.dtd"
   xmlns="http://www.w3.org/2000/svg"
   xmlns:svg="http://www.w3.org/2000/svg"><defs
     id="defs3" /><sodipodi:namedview
     id="namedview3"
     pagecolor="#ffffff"
     bordercolor="#000000"
     borderopacity="0.25"
     inkscape:showpageshadow="2"
     inkscape:pageopacity="0.0"
     inkscape:pagecheckerboard="0"
     inkscape:deskcolor="#d1d1d1"
     inkscape:zoom="8.312"
     inkscape:cx="38.25794"
     inkscape:cy="43.912416"
     inkscape:window-width="2302"
     inkscape:window-height="1261"
     inkscape:window-x="769"
     inkscape:window-y="798"
     inkscape:window-maximized="0"
     inkscape:current-layer="svg3" /><path
     d="m 61.4144,60.133217 c 5.0472,-5.8976 7.8208,-13.3736 7.8208,-21.1776 0,-8.1832 -3.0328,-16.0032 -8.564,-22.012 -0.9152,-0.992 -2.4608,-1.0872 -3.4528,-0.1528 -0.992,0.9152 -1.0488,2.4608 -0.1336,3.4528 4.692,5.112 7.2672,11.7496 7.2672,18.712 0,6.5216 -2.2696,12.772 -6.4384,17.74 l -3.1,-3.0448 c 2.992,-4.3232 4.56,-9.36 4.56,-14.6944 0,-5.7032 -1.8312,-11.1392 -5.2832,-15.6984 -0.8008,-1.068 -2.3464,-1.2872 -3.4144,-0.4768 -1.0872,0.8104 -1.2968,2.3464 -0.4768,3.4144 2.804,3.7192 4.292,8.1256 4.292,12.7608 0,4.0352 -1.1224,7.852 -3.2384,11.1968 l -6.5568,-6.4392 v -31.9104 c 0,-1.3736 -0.82,-2.6128 -2.0792,-3.1568 -1.2968,-0.5624 -2.7272,-0.2768 -3.7384,0.668 0,0.0096 -0.0192,0.0192 -0.0192,0.0288 l -14.6424,14.2544 -12.2704,-12.0512 c -0.9536,-0.944 -2.4984,-0.9064 -3.4528,0.0384 -0.9536,0.9536 -0.9344,2.508 0.0192,3.452 l 56.1928,55.1912 c 0.4768,0.4672 1.1064,0.696 1.7168,0.696 0.6296,0 1.2592,-0.248 1.736,-0.7344 0.9536,-0.9536 0.9344,-2.508 -0.0192,-3.4528 z"
     id="path1"
     style="stroke-width:0.8" /><path
     d="m 18.4984,30.672417 -4.9712,-4.8832 h -1.1424 c -2.5944,0 -4.692,2.0984 -4.692,4.6824 v 24.7488 c 0,2.5848 2.0984,4.6824 4.692,4.6824 H 24.02 l 14.7632,14.372 c 0.6488,0.6296 1.5072,0.9632 2.384,0.9632 0.4576,0 0.9152,-0.0856 1.3544,-0.2768 1.2592,-0.544 2.0792,-1.7832 2.0792,-3.1664 v -15.484 l -4.8832,-4.7968 z"
     id="path2"
     style="stroke-width:0.8" /></svg>
