<?xml version="1.0" encoding="UTF-8" standalone="no"?>
<svg
   version="1.1"
   x="0px"
   y="0px"
   viewBox="0 0 78.447998 78.447998"
   enable-background="new 0 0 100 100"
   xml:space="preserve"
   id="svg3"
   sodipodi:docname="noun-danger.svg"
   width="78.447998"
   height="78.447998"
   inkscape:version="1.3.1 (9b9bdc1480, 2023-11-25, custom)"
   xmlns:inkscape="http://www.inkscape.org/namespaces/inkscape"
   xmlns:sodipodi="http://sodipodi.sourceforge.net/DTD/sodipodi-0.dtd"
   xmlns="http://www.w3.org/2000/svg"
   xmlns:svg="http://www.w3.org/2000/svg"><defs
     id="defs3" /><sodipodi:namedview
     id="namedview3"
     pagecolor="#ffffff"
     bordercolor="#000000"
     borderopacity="0.25"
     inkscape:showpageshadow="2"
     inkscape:pageopacity="0.0"
     inkscape:pagecheckerboard="0"
     inkscape:deskcolor="#d1d1d1"
     inkscape:zoom="8.312"
     inkscape:cx="39.220404"
     inkscape:cy="48.484119"
     inkscape:window-width="2302"
     inkscape:window-height="1261"
     inkscape:window-x="769"
     inkscape:window-y="798"
     inkscape:window-maximized="0"
     inkscape:current-layer="svg3" /><path
     d="m 44.442,24.594 c 0,2.882 -2.336,5.218 -5.218,5.218 -2.882,0 -5.218,-2.336 -5.218,-5.218 0,-2.882 2.336,-5.218 5.218,-5.218 2.882,0 5.218,2.336 5.218,5.218 z m -5.218,34.478 v 0 c -2.43,0 -4.399,-1.97 -4.399,-4.399 V 37.075 c 0,-2.43 1.97,-4.399 4.399,-4.399 v 0 c 2.43,0 4.399,1.97 4.399,4.399 v 17.597 c 0,2.431 -1.969,4.4 -4.399,4.4 z"
     id="path1" /><path
     d="M 39.224,78.448 C 17.6,78.448 0,60.848 0,39.224 0,17.6 17.6,0 39.224,0 c 21.624,0 39.224,17.6 39.224,39.224 0,21.624 -17.6,39.224 -39.224,39.224 z m 0,-71.037 c -17.542,0 -31.813,14.271 -31.813,31.813 0,17.542 14.271,31.813 31.813,31.813 17.542,0 31.813,-14.271 31.813,-31.813 0,-17.542 -14.271,-31.813 -31.813,-31.813 z"
     id="path2" /></svg>
