<?xml version="1.0" encoding="UTF-8" standalone="no"?>
<svg
   version="1.1"
   x="0px"
   y="0px"
   viewBox="0 0 78.447998 78.447998"
   enable-background="new 0 0 100 100"
   xml:space="preserve"
   id="svg3"
   sodipodi:docname="noun-danger-border.svg"
   width="78.447998"
   height="78.447998"
   inkscape:version="1.3.1 (9b9bdc1480, 2023-11-25, custom)"
   xmlns:inkscape="http://www.inkscape.org/namespaces/inkscape"
   xmlns:sodipodi="http://sodipodi.sourceforge.net/DTD/sodipodi-0.dtd"
   xmlns="http://www.w3.org/2000/svg"
   xmlns:svg="http://www.w3.org/2000/svg"><defs
     id="defs3" /><sodipodi:namedview
     id="namedview3"
     pagecolor="#ffffff"
     bordercolor="#000000"
     borderopacity="0.25"
     inkscape:showpageshadow="2"
     inkscape:pageopacity="0.0"
     inkscape:pagecheckerboard="0"
     inkscape:deskcolor="#d1d1d1"
     inkscape:zoom="8.312"
     inkscape:cx="39.220404"
     inkscape:cy="48.484119"
     inkscape:window-width="2302"
     inkscape:window-height="1261"
     inkscape:window-x="769"
     inkscape:window-y="798"
     inkscape:window-maximized="0"
     inkscape:current-layer="svg3" /><path
     d="m 43.3984,27.52 c 0,2.3056 -1.8688,4.1744 -4.1744,4.1744 -2.3056,0 -4.1744,-1.8688 -4.1744,-4.1744 0,-2.3056 1.8688,-4.1744 4.1744,-4.1744 2.3056,0 4.1744,1.8688 4.1744,4.1744 z M 39.224,55.1024 v 0 c -1.944,0 -3.5192,-1.576 -3.5192,-3.5192 V 37.5048 c 0,-1.944 1.576,-3.5192 3.5192,-3.5192 v 0 c 1.944,0 3.5192,1.576 3.5192,3.5192 v 14.0776 c 0,1.9448 -1.5752,3.52 -3.5192,3.52 z"
     id="path1"
     style="stroke-width:0.8" /><path
     d="m 39.224,70.6032 c -17.2992,0 -31.3792,-14.08 -31.3792,-31.3792 0,-17.2992 14.08,-31.3792 31.3792,-31.3792 17.2992,0 31.3792,14.08 31.3792,31.3792 0,17.2992 -14.08,31.3792 -31.3792,31.3792 z m 0,-56.8296 c -14.0336,0 -25.4504,11.4168 -25.4504,25.4504 0,14.0336 11.4168,25.4504 25.4504,25.4504 14.0336,0 25.4504,-11.4168 25.4504,-25.4504 0,-14.0336 -11.4168,-25.4504 -25.4504,-25.4504 z"
     id="path2"
     style="stroke-width:0.8" /></svg>
