<?xml version="1.0" encoding="UTF-8" standalone="no"?>
<svg
   version="1.1"
   x="0px"
   y="0px"
   viewBox="0 0 76.928001 83.597794"
   enable-background="new 0 0 100 100"
   xml:space="preserve"
   id="svg3"
   sodipodi:docname="noun-mute-5967992.svg"
   inkscape:version="1.3.1 (9b9bdc1480, 2023-11-25, custom)"
   inkscape:export-filename="noun-mute-5967992.svg"
   inkscape:export-xdpi="96.461876"
   inkscape:export-ydpi="96.461876"
   width="76.928001"
   height="83.597794"
   xmlns:inkscape="http://www.inkscape.org/namespaces/inkscape"
   xmlns:sodipodi="http://sodipodi.sourceforge.net/DTD/sodipodi-0.dtd"
   xmlns="http://www.w3.org/2000/svg"
   xmlns:svg="http://www.w3.org/2000/svg"><defs
     id="defs3" /><sodipodi:namedview
     id="namedview3"
     pagecolor="#ffffff"
     bordercolor="#000000"
     borderopacity="0.25"
     inkscape:showpageshadow="2"
     inkscape:pageopacity="0.0"
     inkscape:pagecheckerboard="0"
     inkscape:deskcolor="#d1d1d1"
     inkscape:zoom="8.312"
     inkscape:cx="38.25794"
     inkscape:cy="43.912416"
     inkscape:window-width="2302"
     inkscape:window-height="1261"
     inkscape:window-x="769"
     inkscape:window-y="798"
     inkscape:window-maximized="0"
     inkscape:current-layer="svg3" /><path
     d="m 67.152,64.716797 c 6.309,-7.372 9.776,-16.717 9.776,-26.472 0,-10.229 -3.791,-20.004 -10.705,-27.515 -1.144,-1.2400004 -3.076,-1.3590004 -4.316,-0.191 -1.24,1.144 -1.311,3.076 -0.167,4.316 5.865,6.39 9.084,14.687 9.084,23.39 0,8.152 -2.837,15.965 -8.048,22.175 l -3.875,-3.806 c 3.74,-5.404 5.7,-11.7 5.7,-18.368 0,-7.129 -2.289,-13.924 -6.604,-19.623 -1.001,-1.335 -2.933,-1.609 -4.268,-0.596 -1.359,1.013 -1.621,2.933 -0.596,4.268 3.505,4.649 5.365,10.157 5.365,15.951 0,5.044 -1.403,9.815 -4.048,13.996 l -8.196,-8.049 V 4.3047966 c 0,-1.717 -1.025,-3.266 -2.599,-3.94600001 -1.621,-0.703 -3.409,-0.346 -4.673,0.83500001 0,0.012 -0.024,0.024 -0.024,0.036 L 20.655,19.047797 5.317,3.9837966 c -1.192,-1.18 -3.123,-1.133 -4.316,0.048 -1.192,1.192 -1.168,3.135 0.024,4.315 L 71.266,77.335797 c 0.596,0.584 1.383,0.87 2.146,0.87 0.787,0 1.574,-0.31 2.17,-0.918 1.192,-1.192 1.168,-3.135 -0.024,-4.316 z"
     id="path1" /><path
     d="m 13.507,27.890797 -6.214,-6.104 H 5.865 c -3.243,0 -5.865,2.623 -5.865,5.853 v 30.936 c 0,3.231 2.623,5.853 5.865,5.853 h 14.544 l 18.454,17.965 c 0.811,0.787 1.884,1.204 2.98,1.204 0.572,0 1.144,-0.107 1.693,-0.346 1.574,-0.68 2.599,-2.229 2.599,-3.958 v -19.355 l -6.104,-5.996 z"
     id="path2" /></svg>
